<mxfile host="65bd71144e">
    <diagram id="Q-KwpHMS5-62mxbcRFev" name="Page-1">
        <mxGraphModel dx="1374" dy="782" grid="1" gridSize="10" guides="1" tooltips="1" connect="1" arrows="1" fold="1" page="1" pageScale="1" pageWidth="850" pageHeight="1100" math="0" shadow="0">
            <root>
                <mxCell id="0"/>
                <mxCell id="1" parent="0"/>
                <mxCell id="2" value="USER" style="whiteSpace=wrap;html=1;" vertex="1" parent="1">
                    <mxGeometry x="40" y="160" width="120" height="60" as="geometry"/>
                </mxCell>
                <mxCell id="4" value="EMAIL" style="ellipse;whiteSpace=wrap;html=1;" vertex="1" parent="1">
                    <mxGeometry x="390" y="60" width="120" height="80" as="geometry"/>
                </mxCell>
                <mxCell id="10" value="" style="edgeStyle=none;html=1;startArrow=none;startFill=0;strokeWidth=4;" edge="1" parent="1" source="6" target="2">
                    <mxGeometry relative="1" as="geometry"/>
                </mxCell>
                <mxCell id="6" value="PASSWORD" style="triangle;whiteSpace=wrap;html=1;rotation=0;direction=north;" vertex="1" parent="1">
                    <mxGeometry x="10" y="325" width="280" height="110" as="geometry"/>
                </mxCell>
                <mxCell id="13" value="" style="endArrow=none;html=1;strokeWidth=4;exitX=0.933;exitY=-0.017;exitDx=0;exitDy=0;exitPerimeter=0;" edge="1" parent="1" source="2" target="4">
                    <mxGeometry width="50" height="50" relative="1" as="geometry">
                        <mxPoint x="340" y="160" as="sourcePoint"/>
                        <mxPoint x="390" y="110" as="targetPoint"/>
                        <Array as="points"/>
                    </mxGeometry>
                </mxCell>
            </root>
        </mxGraphModel>
    </diagram>
</mxfile>